<?xml version="1.0" encoding="utf-8"?>
<!-- Generator: Adobe Illustrator 22.1.0, SVG Export Plug-In . SVG Version: 6.00 Build 0)  -->
<svg version="1.1" id="Layer_1" xmlns="http://www.w3.org/2000/svg" xmlns:xlink="http://www.w3.org/1999/xlink" x="0px" y="0px"
	 viewBox="0 0 384 93" style="enable-background:new 0 0 384 93;" xml:space="preserve">
<style type="text/css">
	.st0{fill:url(#SVGID_1_);}
	.st1{fill:url(#SVGID_2_);}
	.st2{fill:url(#SVGID_3_);}
	.st3{fill:url(#SVGID_4_);}
	.st4{fill:url(#SVGID_5_);}
	.st5{fill:url(#SVGID_6_);}
	.st6{fill:url(#SVGID_7_);}
	.st7{fill:url(#SVGID_8_);}
	.st8{fill:url(#SVGID_9_);}
</style>
<g>
	<linearGradient id="SVGID_1_" gradientUnits="userSpaceOnUse" x1="-1.5073" y1="49.3619" x2="390.4927" y2="50.3619">
		<stop  offset="0" style="stop-color:#FF0000"/>
		<stop  offset="0.5256" style="stop-color:#FF931E"/>
		<stop  offset="1" style="stop-color:#FCEE21"/>
	</linearGradient>
	<path class="st0" d="M74,71.3c3.6,0,9,2.5,9,8.1C83,87.5,74.4,93,66.6,93c-18.4,0-24.7-16-38.6-26.1C26.9,73.3,20.4,81,12.7,81
		C5.2,81,0.9,76.6,0.9,68.9c0-6.6,5.5-12.1,14.5-12.1c0.9,0,1.7,0.1,2.7,0.1v-0.1c-0.1-6.8-1.2-14.3-1.8-21.5
		c-0.9-9.9-0.8-29.3,8.7-29.3c3.7,0,10.1,1.7,10.1,6.8c0,0.8-0.2,1.6-0.6,2.4C32.6,18,30,30,29.4,60.4c9.4,4.7,23.3,17.9,33.8,17.9
		c4.3,0,7.6-1.6,7.7-5.3C70.9,71.9,72.2,71.3,74,71.3z M11.4,74.8c3.4,0,5.5-5.6,6-11.7c-5.9-0.4-10.3,3.1-10.9,6.2
		C5.8,73.2,9.1,74.8,11.4,74.8z"/>
	<linearGradient id="SVGID_2_" gradientUnits="userSpaceOnUse" x1="-1.5095" y1="50.225" x2="390.4905" y2="51.225">
		<stop  offset="0" style="stop-color:#FF0000"/>
		<stop  offset="0.5256" style="stop-color:#FF931E"/>
		<stop  offset="1" style="stop-color:#FCEE21"/>
	</linearGradient>
	<path class="st1" d="M80.2,50.4c-1.4,10.5-11.3,19.1-22.5,19.1c-11.2,0-19-8.6-17.6-19.1c1.4-10.6,11.3-19.2,22.5-19.2
		C75,31.3,81.6,39.8,80.2,50.4z M60.3,38.5c-3-0.2-5.7,4.8-6,11.4c-0.4,6.5,2,12.2,4.8,12.4c3.1,0.4,5.8-4.9,6.1-11.4
		C65.6,44.3,63.3,38.8,60.3,38.5z"/>
	<linearGradient id="SVGID_3_" gradientUnits="userSpaceOnUse" x1="-1.5084" y1="49.7944" x2="390.4916" y2="50.7944">
		<stop  offset="0" style="stop-color:#FF0000"/>
		<stop  offset="0.5256" style="stop-color:#FF931E"/>
		<stop  offset="1" style="stop-color:#FCEE21"/>
	</linearGradient>
	<path class="st2" d="M124.7,50.1c0,5.5-11.2,19.4-24.6,19.4c-12.1,0-17.7-6.6-17.7-16.4c0-11.9,10.4-22.5,21.2-22.5
		c6.7,0,9.7,4.3,9.7,9.1c0,3.5-2.8,9.8-6.8,9.8c-3.7,0-5.6-3.5-4.6-5.9c0.6-1.7,3-2.6,3.4-3.2c0.2-0.6,0.1-1-1-0.9
		c-2.3,0.2-7.6,4.9-7.6,10.9c0,5.5,4.8,8.6,9.4,8.6c8.2,0,13.5-7,13.5-8.4c0-1.9,0.8-3.4,2.4-3.4C124.1,47.2,124.7,48.5,124.7,50.1z
		"/>
	<linearGradient id="SVGID_4_" gradientUnits="userSpaceOnUse" x1="-1.5105" y1="50.615" x2="390.4895" y2="51.615">
		<stop  offset="0" style="stop-color:#FF0000"/>
		<stop  offset="0.5256" style="stop-color:#FF931E"/>
		<stop  offset="1" style="stop-color:#FCEE21"/>
	</linearGradient>
	<path class="st3" d="M158.3,69.5c-6.3,0-8.2-3.9-8.9-8.6l-0.2-0.1c-4,5.5-9.4,9.2-15.8,9.2c-10.1,0-15.8-6.4-15.8-15
		c0-10.2,7.6-22.8,19.3-22.8c6.6,0,10.2,4.7,10.2,7.5c0,1.2-0.6,1.8-1.9,1.8c-0.9,0-1.8-0.6-5-0.6c-5.8,0-10.1,5.4-10.1,11.4
		c0,4.2,3.2,6.3,6.3,6.3c6,0,9.3-6.9,10.9-12.2c0.2-4.6,0.6-8.4,1.4-10.9c1.7-6.4,15.6-2.5,15.6,2.9c0,3.8-3.3,5.5-3.7,14.3
		c0,2.3,0.2,5.7,3.2,5.9c5.5,0,7.5-6.4,7.5-7.8c0-1.9,0.8-3.4,2.4-3.4c1.9,0,2.5,1.4,2.5,2.9C176.2,57,166.7,69.5,158.3,69.5z"/>
	<linearGradient id="SVGID_5_" gradientUnits="userSpaceOnUse" x1="-1.4697" y1="34.6365" x2="390.5303" y2="35.6365">
		<stop  offset="0" style="stop-color:#FF0000"/>
		<stop  offset="0.5256" style="stop-color:#FF931E"/>
		<stop  offset="1" style="stop-color:#FCEE21"/>
	</linearGradient>
	<path class="st4" d="M201.7,50.1c0,8-8.4,19.4-17.4,19.4c-10.5,0-14.9-14.1-14.9-26.1c0-18.4,11.8-42.7,20.2-42.7
		c4.8,0,6.6,3.7,6.6,8.9c0,12-7.9,28.8-14.7,37.5c-0.2,8,3.2,11.6,6.6,11.6c4.3,0,8.6-5.5,8.6-8.1c0-1.9,0.7-3.4,2.4-3.4
		C201,47.2,201.7,48.5,201.7,50.1z M181.7,38.3c3.8-4.8,7.3-15.2,7.9-19.6c0.6-5.3-1.9-4.8-5,4.5C182.9,28.2,181.7,35.3,181.7,38.3z
		"/>
	<linearGradient id="SVGID_6_" gradientUnits="userSpaceOnUse" x1="-1.4978" y1="45.6519" x2="390.5022" y2="46.6519">
		<stop  offset="0" style="stop-color:#FF0000"/>
		<stop  offset="0.5256" style="stop-color:#FF931E"/>
		<stop  offset="1" style="stop-color:#FCEE21"/>
	</linearGradient>
	<path class="st5" d="M211.7,20.9c-1.5,0.6-4.5,3.8-3.7,5.3c-2.3,1.7-11.3-0.3-11.9-6.2c-0.6-5.9,9.2-13.6,13.6-15.3
		c7.9-3.2,18.1,5.6,17.2,12.5c-0.4,2.6-2.9,17.4-5.2,31.9c6.4-15.2,22.5-34.4,24.3-36.7c7.2-9.3,22.3,3.7,16.3,16.1
		c-3.5,7.1-7.9,24-8.1,31.2c-0.2,7.8,3.2,15,8.1,15.4c4.9,0.4,10.7-2.5,12.8-5.6c3,5-6,19-16.6,19c-10.5,0-18.1-13.3-17.2-28.8
		c0.6-12.7,4.8-25.8,5.5-27.1s0.1-3.1-1-2.6c-5.2,3.2-20,15.3-23.5,27.5c1,3.5-2.3,9.6-5.2,10.7c-2.5,1.1-7.8-1.3-9.5-2.8
		c-1.9-1.4-2-4.8-1.4-9.1L211.7,20.9z"/>
	<linearGradient id="SVGID_7_" gradientUnits="userSpaceOnUse" x1="-1.5096" y1="50.2455" x2="390.4904" y2="51.2455">
		<stop  offset="0" style="stop-color:#FF0000"/>
		<stop  offset="0.5256" style="stop-color:#FF931E"/>
		<stop  offset="1" style="stop-color:#FCEE21"/>
	</linearGradient>
	<path class="st6" d="M303.1,69.5c-6.3,0-8.2-3.9-8.9-8.6l-0.2-0.1c-4,5.5-9.4,9.2-15.8,9.2c-10.1,0-15.8-6.4-15.8-15
		c0-10.2,7.6-22.8,19.3-22.8c6.6,0,10.2,4.7,10.2,7.5c0,1.2-0.6,1.8-1.9,1.8c-0.9,0-1.8-0.6-5-0.6c-5.8,0-10.1,5.4-10.1,11.4
		c0,4.2,3.2,6.3,6.3,6.3c6,0,9.3-6.9,10.9-12.2c0.2-4.6,0.6-8.4,1.4-10.9c1.7-6.4,15.6-2.5,15.6,2.9c0,3.8-3.3,5.5-3.7,14.3
		c0,2.3,0.2,5.7,3.2,5.9c5.5,0,7.5-6.4,7.5-7.8c0-1.9,0.8-3.4,2.4-3.4c1.9,0,2.5,1.4,2.5,2.9C321,57,311.5,69.5,303.1,69.5z"/>
	<linearGradient id="SVGID_8_" gradientUnits="userSpaceOnUse" x1="-1.5082" y1="49.7036" x2="390.4918" y2="50.7036">
		<stop  offset="0" style="stop-color:#FF0000"/>
		<stop  offset="0.5256" style="stop-color:#FF931E"/>
		<stop  offset="1" style="stop-color:#FCEE21"/>
	</linearGradient>
	<path class="st7" d="M350.3,43.9c-0.9,7.9-7.2,25.8-22.5,25.8c-7,0-16.6-9.7-11.4-34.1c1.7-7.5,18.9-1.2,14.8,5.4
		c-0.9,1.5-5.1,10.6-3.7,17.1c0.6,3.4,4.3,1.5,6.7-1.4c4.3-5.4,6.3-21.4,4.5-22c-1.7-0.4,0.4-4.2,5.7-3
		C349.5,32.8,351.1,36.2,350.3,43.9z"/>
	<linearGradient id="SVGID_9_" gradientUnits="userSpaceOnUse" x1="-1.4793" y1="38.4034" x2="390.5207" y2="39.4034">
		<stop  offset="0" style="stop-color:#FF0000"/>
		<stop  offset="0.5256" style="stop-color:#FF931E"/>
		<stop  offset="1" style="stop-color:#FCEE21"/>
	</linearGradient>
	<path class="st8" d="M383.9,49.6c0,6.8-10.9,19.4-18.4,19.4c-9.2,0-12.9-8.4-12.9-19.1c0-4.8,0.5-12.8,1.4-15.8
		c1.7-5.7,16.1-3.4,16.1,3c0,3.1-3.9,7.4-3.9,15.6c0,3,0.8,5.3,3,5.3h0.1c5.4,0,9.6-6.4,9.6-7.8c0-1.9,0.8-3.4,2.4-3.4
		C383.3,46.8,383.9,48.1,383.9,49.6z M356.1,18.1c0.6-4.6,5-8.5,9.6-8.5c4.8,0,7.9,3.9,7.3,8.5c-0.8,4.6-5,8.5-9.7,8.5
		C358.8,26.6,355.3,22.7,356.1,18.1z"/>
</g>
</svg>
